<?xml version="1.0" standalone="no"?>
<!DOCTYPE svg PUBLIC "-//W3C//DTD SVG 20010904//EN"
 "http://www.w3.org/TR/2001/REC-SVG-20010904/DTD/svg10.dtd">
<svg version="1.0" xmlns="http://www.w3.org/2000/svg"
 width="120.000000pt" height="63.000000pt" viewBox="0 0 1200.000000 630.000000"
 preserveAspectRatio="xMidYMid meet">

<g transform="translate(0.000000,630.000000) scale(0.100000,-0.100000)"
fill="#000000" stroke="none">
<path d="M7557 4076 c-26 -7 -50 -15 -52 -18 -7 -7 -45 -181 -41 -186 2 -2 21
4 42 13 56 24 117 24 143 1 33 -30 27 -80 -44 -371 -36 -147 -65 -271 -65
-276 0 -5 49 -9 110 -9 l109 0 10 38 c5 20 26 109 47 196 20 88 45 184 55 214
45 131 121 202 219 204 69 2 94 -22 93 -89 -1 -38 -94 -466 -119 -545 -5 -16
5 -18 109 -18 l114 0 53 233 c29 127 60 248 68 267 37 90 120 151 209 153 38
0 50 -4 70 -27 13 -15 23 -40 23 -57 0 -17 -19 -110 -42 -207 -53 -226 -55
-295 -12 -378 21 -43 43 -68 78 -91 66 -45 115 -57 226 -57 80 1 110 6 190 33
52 18 98 36 103 40 9 9 48 204 42 210 -2 2 -32 -8 -67 -21 -60 -24 -120 -40
-200 -53 -49 -8 -115 9 -144 36 -34 32 -32 91 11 281 47 210 51 252 31 321
-19 66 -53 110 -110 140 -35 19 -57 22 -146 22 -101 0 -108 -1 -180 -37 -41
-21 -83 -43 -92 -50 -14 -10 -21 -7 -45 19 -52 56 -87 68 -198 68 -89 0 -107
-3 -160 -28 -33 -15 -67 -35 -77 -44 -17 -15 -20 -14 -42 10 -61 65 -208 95
-319 63z"/>
<path d="M4731 3760 c-219 -59 -344 -226 -358 -476 -21 -380 248 -627 612
-561 255 46 405 241 405 527 0 246 -118 428 -326 501 -88 31 -237 35 -333 9z
m276 -171 c56 -27 117 -97 145 -168 29 -75 32 -259 5 -336 -26 -77 -84 -145
-148 -178 -108 -55 -263 -30 -334 55 -69 81 -102 199 -92 327 13 172 96 286
232 322 46 12 144 1 192 -22z"/>
<path d="M3040 3752 c-164 -54 -283 -199 -321 -390 -14 -75 -7 -225 15 -293
61 -195 202 -324 382 -349 134 -18 246 17 348 111 l59 54 -6 -135 c-7 -169
-24 -230 -81 -286 -101 -102 -305 -96 -409 11 -38 40 -67 108 -67 162 l0 33
-105 0 c-120 0 -114 8 -90 -103 46 -220 226 -356 471 -357 211 0 352 77 425
234 55 118 59 164 59 757 l0 539 -100 0 -100 0 0 -72 0 -71 -60 57 c-86 82
-151 109 -270 113 -71 2 -109 -2 -150 -15z m309 -198 c126 -68 191 -221 161
-384 -32 -178 -158 -280 -329 -268 -82 6 -136 33 -189 94 -145 164 -106 465
72 556 65 33 86 38 162 34 55 -2 82 -9 123 -32z"/>
<path d="M4197 3756 c-50 -18 -102 -59 -138 -109 l-29 -40 0 66 0 67 -100 0
-100 0 0 -495 0 -495 99 0 99 0 4 318 c4 301 5 320 26 374 27 67 74 112 134
129 40 10 93 8 128 -5 10 -3 35 20 78 73 34 43 62 80 62 83 0 3 -22 15 -49 27
-58 24 -155 28 -214 7z"/>
<path d="M6832 3751 c-61 -23 -141 -79 -177 -124 l-25 -32 0 73 0 72 -105 0
-105 0 0 -715 0 -715 105 0 105 0 0 286 0 287 53 -51 c99 -93 219 -132 343
-112 120 19 189 55 265 136 58 63 92 122 117 205 83 272 -21 555 -246 666 -70
35 -83 38 -176 40 -81 3 -112 -1 -154 -16z m229 -188 c105 -47 170 -153 177
-291 11 -214 -99 -358 -284 -370 -114 -7 -194 31 -260 123 -68 97 -83 268 -34
383 29 67 114 146 178 167 61 19 164 14 223 -12z"/>
<path d="M5470 3423 c0 -412 14 -484 114 -591 84 -90 227 -132 382 -112 139
18 234 79 293 190 52 98 61 172 61 521 l0 309 -105 0 -105 0 0 -318 c0 -348
-5 -391 -57 -453 -36 -43 -80 -59 -157 -59 -78 0 -111 11 -154 53 -60 58 -66
101 -67 459 l0 318 -102 0 -103 0 0 -317z"/>
</g>
</svg>
